<svg width="73" height="36" viewBox="0 0 73 36" fill="none" xmlns="http://www.w3.org/2000/svg">
<path d="M37.7539 13.5743C37.7122 16.9934 40.6803 18.9015 42.9162 20.0359C45.2134 21.2 45.985 21.9463 45.9763 22.9871C45.9587 24.5803 44.1437 25.2833 42.4449 25.3107C39.4812 25.3586 37.7582 24.4776 36.3882 23.8111L35.3207 29.0128C36.6951 29.6724 39.2401 30.2476 41.8793 30.2727C48.0741 30.2727 52.1272 27.0887 52.1491 22.1518C52.1732 15.8864 43.8259 15.5395 43.8829 12.7389C43.9026 11.8899 44.6808 10.9837 46.3862 10.7532C47.2301 10.6368 49.5603 10.5478 52.2017 11.8145L53.2386 6.78174C51.8181 6.24309 49.9921 5.72725 47.719 5.72725C41.8881 5.72725 37.7867 8.95463 37.7539 13.5743ZM63.2015 6.16092C62.0704 6.16092 61.1168 6.84793 60.6916 7.90243L51.8422 29.9029H58.0326L59.2645 26.3583H66.8293L67.544 29.9029H73L68.2388 6.16092H63.2015ZM64.0674 12.5746L65.8539 21.4898H60.9612L64.0674 12.5746ZM30.2482 6.16092L25.3687 29.9029H31.2676L36.1449 6.16092H30.2482ZM21.5217 6.16092L15.3817 22.3207L12.8981 8.58031C12.6065 7.04651 11.4557 6.16092 10.1777 6.16092H0.140292L0 6.85022C2.06054 7.31583 4.40166 8.06676 5.81992 8.87018C6.68798 9.36091 6.93568 9.79001 7.22065 10.9563L11.9248 29.9029H18.159L27.7164 6.16092H21.5217Z" fill="#676B8B"/>
</svg>
